<svg width="57" height="60" viewBox="0 0 57 60" fill="none" xmlns="http://www.w3.org/2000/svg">
<path d="M55.9525 19.9663L28.9803 0.226256C28.7794 0.0792462 28.537 0 28.2881 0C28.0392 0 27.7968 0.0792462 27.5959 0.226256L0.623825 19.9663C0.101637 20.3485 -0.0119174 21.0818 0.370348 21.6041L3.8957 26.4211C3.98656 26.5453 4.101 26.6504 4.2325 26.7304C4.364 26.8104 4.50998 26.8637 4.66208 26.8872C4.81418 26.9107 4.96943 26.9041 5.11896 26.8676C5.26848 26.8311 5.40935 26.7655 5.53351 26.6745L6.59734 25.8959V58.828C6.59734 59.4751 7.12211 59.9998 7.76922 59.9998H48.869C49.5161 59.9998 50.0409 59.4751 50.0409 58.828V25.9413L51.0428 26.6745C51.167 26.7655 51.3078 26.831 51.4573 26.8675C51.6069 26.904 51.7621 26.9106 51.9142 26.8871C52.0663 26.8636 52.2122 26.8103 52.3437 26.7303C52.4752 26.6504 52.5896 26.5453 52.6805 26.4211L56.2059 21.6041C56.5882 21.0816 56.4747 20.3485 55.9525 19.9663ZM47.6971 53.0856H19.9715C19.3244 53.0856 18.7996 53.6103 18.7996 54.2574C18.7996 54.9045 19.3244 55.4293 19.9715 55.4293H47.6971V57.6562H8.94097V25.105H36.3842C37.0313 25.105 37.5561 24.5803 37.5561 23.9332C37.5561 23.2861 37.0313 22.7613 36.3842 22.7613H10.8811L28.2882 10.0213L47.6971 24.226V53.0856ZM51.4813 24.0911L28.9803 7.62348C28.7795 7.47638 28.5371 7.39712 28.2882 7.39719C28.0393 7.39709 27.7968 7.47636 27.5961 7.62348L5.09488 24.0911L2.95375 21.1654L28.2883 2.62391L53.6228 21.1654L51.4813 24.0911Z" fill="#F1CDB3"/>
<path d="M41.7554 23.7046C41.7401 23.6295 41.7167 23.5557 41.6874 23.4842C41.6581 23.4139 41.6218 23.3459 41.5796 23.2826C41.5374 23.2184 41.4887 23.1587 41.4343 23.1045C41.214 22.8855 40.9164 22.7621 40.6058 22.761C40.2976 22.761 39.9952 22.8864 39.7774 23.1045C39.7235 23.1584 39.6742 23.2182 39.632 23.2826C39.5899 23.3459 39.5535 23.4139 39.5242 23.4842C39.4949 23.5557 39.4715 23.6295 39.4574 23.7046C39.4422 23.7796 39.434 23.8569 39.434 23.933C39.434 24.0092 39.4422 24.0866 39.4574 24.1615C39.4715 24.2364 39.4949 24.3103 39.5242 24.3818C39.5535 24.4523 39.5899 24.5202 39.632 24.5835C39.6742 24.648 39.7235 24.7076 39.7774 24.7616C39.8313 24.8155 39.891 24.8648 39.9555 24.9069C40.0188 24.949 40.0867 24.9855 40.1582 25.0148C40.2285 25.0441 40.3022 25.0675 40.3774 25.0816C40.4524 25.0968 40.5297 25.1049 40.6058 25.1049C40.6819 25.1049 40.7594 25.0968 40.8343 25.0816C40.9095 25.067 40.9829 25.0446 41.0534 25.0148C41.1249 24.9855 41.1929 24.949 41.2561 24.9069C41.3206 24.8648 41.3803 24.8155 41.4343 24.7616C41.4882 24.7077 41.5374 24.648 41.5796 24.5835C41.6218 24.5202 41.6581 24.4523 41.6874 24.3818C41.7167 24.3105 41.7401 24.2365 41.7554 24.1615C41.7706 24.0865 41.7775 24.0092 41.7775 23.933C41.7775 23.8569 41.7705 23.7795 41.7554 23.7046Z" fill="#F1CDB3"/>
<path d="M16.8984 54.0281C16.8834 53.9531 16.8611 53.8797 16.8318 53.809C16.8025 53.7386 16.766 53.6695 16.7238 53.6063C16.6814 53.5423 16.6328 53.4826 16.5786 53.4281C16.5247 53.3742 16.4649 53.3262 16.4005 53.2828C16.2725 53.1978 16.1292 53.1385 15.9786 53.1082C15.8274 53.0777 15.6717 53.0777 15.5204 53.1082C15.4466 53.1234 15.3728 53.1457 15.3013 53.175C15.231 53.2043 15.163 53.2406 15.0997 53.2828C15.0353 53.325 14.9754 53.3742 14.9216 53.4281C14.8665 53.482 14.8185 53.543 14.7751 53.6063C14.6901 53.7342 14.6309 53.8775 14.6006 54.0281C14.5853 54.1043 14.5784 54.1805 14.5784 54.2566C14.5779 54.4106 14.6081 54.5632 14.6673 54.7054C14.6966 54.7758 14.7331 54.8438 14.7751 54.9081C14.8185 54.9714 14.8665 55.0312 14.9216 55.0862C14.9755 55.1403 15.0354 55.1895 15.0997 55.2315C15.163 55.2737 15.231 55.3101 15.3013 55.3394C15.3728 55.3686 15.4466 55.3909 15.5204 55.4061C15.5966 55.4214 15.674 55.4296 15.7501 55.4296C15.9816 55.4286 16.2078 55.3598 16.4005 55.2315C16.4648 55.1894 16.5245 55.1407 16.5786 55.0862C16.6325 55.0312 16.6818 54.9715 16.7238 54.9081C16.8523 54.7151 16.9212 54.4885 16.9219 54.2566C16.9219 54.1805 16.9137 54.1042 16.8984 54.0281Z" fill="#F1CDB3"/>
<path d="M42.8446 30.5741C42.8446 29.5803 42.4549 28.6476 41.747 27.9481C41.046 27.2554 40.0874 26.8676 39.11 26.876C38.8018 26.8793 38.4952 26.9208 38.1973 26.9997C36.0273 27.5554 33.9071 28.2902 31.8585 29.1966C30.6886 28.9199 29.4905 28.7806 28.2883 28.7813C27.6113 28.7813 26.9283 28.8257 26.2579 28.9133C25.7402 28.9816 25.2263 29.0761 24.7182 29.1966C22.67 28.2903 20.5501 27.5556 18.3804 26.9999C18.37 26.997 18.3595 26.9942 18.349 26.9915C17.1957 26.6978 16.0062 26.9619 15.0858 27.7171C14.1657 28.472 13.6743 29.5867 13.7375 30.7745C13.802 31.9938 13.922 33.2096 14.0969 34.418C14.254 35.5012 14.4548 36.5776 14.6986 37.6446C14.3358 38.5729 14.0831 39.5405 13.9455 40.5276C13.8883 40.9397 13.8594 41.3553 13.859 41.7714C13.859 47.0173 18.4335 51.2853 24.0567 51.2853H32.5203C35.6024 51.2853 38.486 50.0035 40.4316 47.7686C42.2146 45.7205 42.9958 43.1486 42.6312 40.5269C42.5528 39.9648 42.4372 39.4085 42.2851 38.8617C42.1698 38.4498 42.0341 38.0438 41.8786 37.6453C42.3945 35.3878 42.7159 33.0901 42.8392 30.7777C42.8429 30.7091 42.8446 30.6416 42.8446 30.5741ZM40.4987 30.647L40.4984 30.651C40.376 32.949 40.046 35.2312 39.5123 37.4697C39.4542 37.7133 39.4757 37.9692 39.5736 38.1997C39.7522 38.6199 39.9035 39.0511 40.0267 39.4907C40.1508 39.937 40.2452 40.391 40.3093 40.8497C40.579 42.7897 39.9945 44.7004 38.6633 46.2296C37.1629 47.9529 34.9238 48.9414 32.5197 48.9414H24.0561C19.7255 48.9414 16.2022 45.7249 16.2022 41.7714C16.2022 41.4679 16.2238 41.1574 16.2664 40.8496C16.3938 39.938 16.6412 39.0473 17.0022 38.2007C17.1005 37.9699 17.1221 37.7138 17.064 37.4698C16.7973 36.3508 16.581 35.2203 16.4158 34.0819C16.251 32.9439 16.1381 31.799 16.0774 30.6508C16.0542 30.2148 16.2344 29.806 16.572 29.5289C16.8193 29.326 17.1197 29.2196 17.429 29.2196C17.5344 29.2196 17.6409 29.2319 17.7467 29.2571L17.77 29.2633C19.9493 29.8194 22.0751 30.5674 24.1224 31.4985C24.3697 31.6112 24.6484 31.6346 24.911 31.5646C25.4536 31.4199 26.0051 31.3106 26.5619 31.2372C27.1311 31.1628 27.7119 31.125 28.2876 31.125C29.4353 31.125 30.5712 31.2729 31.6641 31.5646C31.9264 31.6342 32.2048 31.6114 32.4519 31.499C34.5065 30.5646 36.64 29.8145 38.8273 29.2573C38.9274 29.2333 39.0299 29.2207 39.1328 29.2196H39.1481C39.4983 29.2196 39.8443 29.3632 40.099 29.6149C40.2265 29.74 40.3277 29.8892 40.3966 30.0539C40.4655 30.2186 40.5008 30.3955 40.5004 30.574C40.5005 30.5983 40.4999 30.6224 40.4987 30.647Z" fill="#F1CDB3"/>
<path d="M30.486 43.5662C29.9204 43.5662 29.4601 43.1059 29.4601 42.5403C29.4601 41.8932 28.9354 41.3684 28.2882 41.3684C27.641 41.3684 27.1163 41.8932 27.1163 42.5403V42.5831C27.1163 43.1487 26.6561 43.609 26.0904 43.609C25.4432 43.609 24.9186 44.1338 24.9186 44.7809C24.9186 45.428 25.4432 45.9528 26.0904 45.9528C26.9412 45.9528 27.7191 45.6356 28.3128 45.1135C28.9198 45.6284 29.6901 45.9107 30.486 45.9099C31.1331 45.9099 31.6579 45.3851 31.6579 44.738C31.6579 44.0908 31.1331 43.5662 30.486 43.5662Z" fill="#F1CDB3"/>
<path d="M24.1918 38.1664L22.4511 37.3688C22.298 37.2985 22.1315 37.2621 21.963 37.2621C21.7945 37.2621 21.628 37.2985 21.4749 37.3688L19.7341 38.1664C19.1457 38.4359 18.8872 39.1314 19.1568 39.7198C19.2209 39.8597 19.3119 39.9856 19.4247 40.0904C19.5374 40.1951 19.6697 40.2766 19.814 40.3302C19.9582 40.3838 20.1116 40.4085 20.2654 40.4028C20.4192 40.3971 20.5704 40.3612 20.7103 40.2971L21.9629 39.7232L23.2155 40.2971C23.8036 40.5669 24.4994 40.3082 24.7689 39.7198C25.0387 39.1314 24.7801 38.4358 24.1918 38.1664Z" fill="#F1CDB3"/>
<path d="M36.8422 38.1662L35.1015 37.3686C34.9484 37.2983 34.7819 37.262 34.6134 37.262C34.4449 37.262 34.2785 37.2983 34.1253 37.3686L32.3846 38.1662C31.7962 38.4357 31.5377 39.1312 31.8074 39.7196C32.077 40.3083 32.7725 40.5669 33.3608 40.2969L34.6134 39.723L35.866 40.2969C36.0189 40.3672 36.1852 40.4036 36.3534 40.4036C36.7976 40.4036 37.2224 40.1498 37.4195 39.7196C37.6891 39.1312 37.4307 38.4357 36.8422 38.1662Z" fill="#F1CDB3"/>
</svg>
